<?xml version="1.0" encoding="UTF-8" standalone="no"?>
<!-- Created with Inkscape (http://www.inkscape.org/) -->

<svg
   width="210.90764mm"
   height="32mm"
   viewBox="0 0 210.90764 32"
   version="1.1"
   id="svg227"
   xmlns:inkscape="http://www.inkscape.org/namespaces/inkscape"
   xmlns:sodipodi="http://sodipodi.sourceforge.net/DTD/sodipodi-0.dtd"
   xmlns="http://www.w3.org/2000/svg"
   xmlns:svg="http://www.w3.org/2000/svg">
  <sodipodi:namedview
     id="namedview229"
     pagecolor="#ffffff"
     bordercolor="#000000"
     borderopacity="0.25"
     inkscape:showpageshadow="2"
     inkscape:pageopacity="0.0"
     inkscape:pagecheckerboard="0"
     inkscape:deskcolor="#d1d1d1"
     inkscape:document-units="mm"
     showgrid="false"
     showguides="true" />
  <defs
     id="defs224">
    <clipPath
       clipPathUnits="userSpaceOnUse"
       id="clipPath210">
      <path
         d="M 0,595.276 H 841.89 V 0 H 0 Z"
         id="path208" />
    </clipPath>
  </defs>
  <g
     inkscape:label="Layer 1"
     inkscape:groupmode="layer"
     id="layer1"
     transform="translate(-14.100947,-81.522898)">
    <g
       id="g204"
       transform="matrix(0.1000954,0,0,-0.1000954,4.1640861,136.04155)"
       style="fill:#22577a;fill-opacity:1"
       inkscape:export-filename="g204.svg"
       inkscape:export-xdpi="300"
       inkscape:export-ydpi="300">
      <g
         id="g206"
         clip-path="url(#clipPath210)"
         style="fill:#22577a;fill-opacity:1">
        <g
           id="g212"
           transform="translate(253.3193,224.9719)"
           style="fill:#22577a;fill-opacity:1">
          <path
             d="m 0,0 c -83.542,0 -151.51,67.97 -151.51,151.511 h 60.462 c 0,-50.204 40.843,-91.048 91.048,-91.048 25.035,0 48.374,9.951 65.709,28.027 l 170.578,180.564 c 28.735,32.192 69.91,50.641 113.053,50.641 83.541,0 151.51,-67.968 151.51,-151.51 0,-83.541 -67.969,-151.51 -151.51,-151.51 -39.029,0 -76.098,14.808 -104.381,41.694 l 41.654,43.819 c 16.998,-16.155 39.274,-25.051 62.727,-25.051 50.204,0 91.048,40.844 91.048,91.048 0,50.205 -40.844,91.048 -91.048,91.048 -26.028,0 -50.866,-11.179 -68.151,-30.668 L 280.548,227.86 109.501,46.8 C 80.494,16.561 41.662,0 0,0"
             style="fill:#22577a;fill-opacity:1;fill-rule:nonzero;stroke:none"
             id="path214" />
        </g>
        <g
           id="g216"
           transform="translate(166.4009,463.7507)"
           style="fill:#22577a;fill-opacity:1">
          <path
             d="m 0,0 c 0,-18.537 -15.027,-33.564 -33.564,-33.564 -18.537,0 -33.563,15.027 -33.563,33.564 0,18.537 15.026,33.563 33.563,33.563 C -15.027,33.563 0,18.537 0,0"
             style="fill:#22577a;fill-opacity:1;fill-rule:nonzero;stroke:none"
             id="path218" />
        </g>
        <g
           id="g220"
           transform="translate(338.1777,463.7507)"
           style="fill:#22577a;fill-opacity:1">
          <path
             d="m 0,0 c 0,-18.537 -15.027,-33.564 -33.564,-33.564 -18.537,0 -33.564,15.027 -33.564,33.564 0,18.537 15.027,33.563 33.564,33.563 C -15.027,33.563 0,18.537 0,0"
             style="fill:#22577a;fill-opacity:1;fill-rule:nonzero;stroke:none"
             id="path222" />
        </g>
      </g>
    </g>
    <text
       xml:space="preserve"
       style="font-variant:normal;font-weight:normal;font-stretch:normal;font-size:33.9532px;font-family:Outfit;-inkscape-font-specification:Outfit-Regular;writing-mode:lr-tb;fill:#000000;fill-opacity:1;fill-rule:nonzero;stroke:none;stroke-width:0.21843"
       id="text594"
       x="83.763306"
       y="106.4356"><tspan
         x="83.763306 92.523224 110.92586 123.86204 136.96796 156.72871 171.22675 190.98752 209.18639"
         y="106.4356"
         sodipodi:role="line"
         id="tspan592"
         style="stroke-width:0.21843">Infraspec</tspan></text>
  </g>
</svg>
