<svg version="1.1" viewBox="0.0 0.0 788.0997375328084 210.45406824146983" fill="none" stroke="none"
     stroke-linecap="square" stroke-miterlimit="10" xmlns:xlink="http://www.w3.org/1999/xlink"
     xmlns="http://www.w3.org/2000/svg">
  <g>
    <path fill="#2f2f41"
          d="m43.208565 167.1825q1.15625 4.96875 7.59375 4.96875l10.75 0l0 7.4375l-52.578125 0l0 -7.4375l11.734376 -0.171875q4.640625 -0.65625 6.78125 -4.796875l0 -95.39062q-0.65625 -3.796875 -7.765625 -4.953125l-10.750001 0l0 -7.4375l52.578125 0l0 7.4375l-11.578125 0q-4.453125 0.65625 -6.765625 4.953125l0 95.39062zm55.378677 -56.374992q6.109375 -15.703125 26.953125 -15.703125q31.906242 0.171875 31.906242 40.843742l0 31.234375q1.15625 4.96875 5.953125 4.96875l6.28125 0l0 7.4375l-38.1875 0l0 -7.4375l7.109375 -0.171875q3.296875 -0.65625 5.125 -4.796875l0 -27.9375q0 -35.046867 -19.343742 -35.046867q-25.796875 0 -25.796875 33.562492l0 29.421875q1.15625 4.96875 5.953125 4.96875l6.28125 0l0 7.4375l-38.1875 0l0 -7.4375l7.109375 -0.171875q3.296875 -0.65625 5.125 -4.796875l0 -57.031242l-12.40625 0l0 -3.3125l19.671875 -13.21875l6.453125 0l0 17.1875zm150.44 -44.140625l-2.96875 -0.828125q-2.96875 -0.828125 -10.5 -0.828125q-7.515625 0 -13.140625 4.796875q-5.625 4.796875 -5.625 13.5625l0 18.84375l24.3125 0l0 7.109375l-24.3125 0l0 57.859367q1.15625 4.96875 7.609375 4.96875l10.25 0l0 7.4375l-50.59375 0l0 -7.4375l11.25 -0.171875q4.625 -0.65625 6.765625 -4.796875l0 -57.859367l-22.484375 0l0 -7.109375l22.484375 0l0 -12.734375q0 -14.046875 9.265625 -23.140625q9.265625 -9.09375 21.40625 -9.09375q12.15625 0 16.28125 1.15625l0 8.265625zm57.87529 27.78125l0.328125 0q4.625 0 7.765625 0.328125q-2.46875 9.59375 -2.46875 13.0625q-3.3125 -0.5 -7.78125 -0.5q-13.0625 0 -21.578125 11.328125q-8.515625 11.328117 -8.515625 22.562492l0 25.953125q1.171875 4.96875 5.953125 4.96875l7.9375 0l0 7.4375l-41.500015 0l0 -7.4375l8.76564 -0.171875q3.3125 -0.65625 5.125 -4.796875l0 -53.890617l-12.39064 0l0 -3.3125l19.67189 -13.21875l6.4375 0l0 21.328125q9.765625 -23.640625 32.25 -23.640625zm97.20398 76.37499q-2.640625 10.921875 -11.484375 10.921875q-8.84375 0 -12.484375 -11.75q-9.09375 11.90625 -20.828125 11.90625q-14.21875 0 -24.3125 -7.015625q-10.078125 -7.03125 -10.078125 -17.609375l0 -0.5q0 -18.515625 20.828125 -28.28125q11.578125 -5.4531174 18.359375 -5.4531174q6.78125 0 16.03125 3.96875l0.171875 -7.265625q0 -9.09375 -2.984375 -12.078125q-6.4375 -5.953125 -17.03125 -5.953125q-10.578125 0 -29.59375 11.90625l-0.328125 -12.890625q15.875 -7.9375 32.40625 -7.9375l0.828125 0q10.078125 0 20.171875 7.28125q5.28125 3.796875 8.5 10.078125q3.234375 6.28125 3.234375 14.046875l0 44.484367q1.0 1.15625 2.484375 1.15625q0.328125 0 6.109375 -6.453125l0 7.4375zm-23.96875 -30.75q-1.328125 -7.4375 -12.0625 -7.4375l-1.0 0q-8.265625 0 -17.03125 7.4375q-8.75 7.4375 -8.75 15.875q0 1.15625 0.15625 2.3125q1.65625 13.5625 18.359375 13.5625q8.59375 0 12.71875 -4.125q4.140625 -4.140625 5.296875 -6.953125q1.15625 -2.8125 1.734375 -7.109375q0.578125 -4.296875 0.578125 -5.625l0 -7.9375z"
          fill-rule="nonzero"/>
    <path fill="#22577A"
          d="m479.83737 62.698128q0.484375 -0.328125 -0.515625 -2.796875q-0.984375 -2.484375 -1.3125 -4.140625l8.265625 0l16.046875 27.765625l-4.640625 3.8125l-3.46875 -4.46875l-6.609375 -6.28125q-5.453125 -5.453125 -10.671875 -7.765625q-5.203125 -2.3125 -15.625 -2.3125q-10.40625 0 -17.84375 7.28125q-7.4375 7.265625 -7.4375 14.875q0 7.59375 4.953125 11.5625q4.96875 3.96875 11.984375 6.953125q7.03125 2.96875 10.5 3.796875q18.515625 4.46875 26.78125 10.078125q15.875 10.593742 15.875 27.281242q0 9.09375 -4.71875 16.125q-4.703125 7.03125 -9.328125 10.0q-11.578125 7.609375 -31.09375 7.609375q-11.734375 0 -21.484375 -5.625l-2.484375 -1.484375l0.328125 2.96875q0.5 1.65625 1.0 3.140625l-8.265625 0l-16.046875 -27.765625l4.640625 -3.8125l3.46875 4.46875l6.609375 6.28125q12.078125 12.40625 26.625 12.40625q0.484375 0 0.984375 0q15.046875 -0.5 23.890625 -8.109375q8.84375 -7.609375 8.84375 -15.953125q0 -8.34375 -3.296875 -11.65625q-7.109375 -7.109375 -12.078125 -8.59375q-24.296875 -7.2812424 -37.859375 -13.890617q-15.875 -7.9375 -15.875 -24.140625l0 -0.65625q0 -8.109375 3.71875 -14.71875q3.71875 -6.609375 9.671875 -10.25q12.078125 -7.265625 24.140625 -7.265625q12.078125 0 22.328125 5.28125zm65.29831 42.984375q9.09375 -11.078125 23.640625 -11.234375l0.5 0q17.1875 0 27.84375 12.3125q10.671875 12.3125 10.671875 32.234367q0 19.921875 -10.828125 31.5q-10.828125 11.578125 -27.6875 11.578125l-0.5 0q-14.375 -0.171875 -23.8125 -10.921875l0 24.140625q1.171875 4.96875 5.953125 4.96875l7.9375 0l0 7.4375l-41.5 0l0 -7.4375l8.765625 -0.171875q3.3125 -0.65625 5.125 -4.796875l0 -83.15624l-12.390625 0l0 -3.3125l19.671875 -13.21875l6.4375 0l0 0.15625l0.171875 -0.15625l0 10.078125zm45.140625 32.734367q-0.171875 -15.046867 -6.125 -24.124992q-5.953125 -9.09375 -16.703125 -9.09375q-19.671875 0 -21.984375 29.421867l0 8.921875q1.484375 27.453125 21.984375 27.609375q9.921875 0 16.203125 -8.59375q6.296875 -8.59375 6.625 -24.140625zm102.826294 35.546875q-14.546875 8.109375 -31.40625 8.109375q-0.328125 0 -0.671875 0q-20.0 0 -31.5 -11.578125q-11.484375 -11.578125 -11.484375 -32.078125q0 -20.499992 11.25 -31.406242q12.390625 -11.734375 31.328125 -11.734375q18.9375 0 27.78125 11.90625q8.84375 11.890625 8.84375 30.078117l0 3.96875l-63.484375 0q0.984375 12.90625 8.75 22.328125q8.265625 9.578125 23.140625 9.578125q14.890625 0 28.109375 -9.75l-0.65625 10.578125zm-9.421875 -41.328125q-0.5 -27.109367 -22.15625 -27.109367l-0.328125 0q-23.640625 0 -27.4375 27.109367l49.921875 0zm93.74902 35.546875l0 8.59375q-9.921875 4.625 -18.53125 4.625l-2.140625 0q-19.34375 0 -32.40625 -12.46875q-13.0625 -12.484375 -13.0625 -30.671875q0 -18.187492 14.125 -30.249992q14.140625 -12.078125 32.0 -12.078125q13.390625 0 21.0 5.125l-4.296875 11.90625q-7.4375 -6.453125 -15.375 -6.453125q-12.234375 0 -21.65625 9.421875q-9.421875 9.421875 -9.421875 22.734367q0 13.3125 10.078125 23.40625q10.09375 10.078125 23.96875 10.078125q8.609375 0 15.71875 -3.96875z"
          fill-rule="nonzero"/>
  </g>
</svg>
