<svg version="1.1" viewBox="0.0 0.0 54.0 54.0" fill="none" stroke="none" stroke-linecap="square" stroke-miterlimit="10" xmlns:xlink="http://www.w3.org/1999/xlink" xmlns="http://www.w3.org/2000/svg"><clipPath id="p.0"><path d="m0 0l54.0 0l0 54.0l-54.0 0l0 -54.0z" clip-rule="nonzero"/></clipPath><g clip-path="url(#p.0)"><path fill="#000000" fill-opacity="0.0" d="m0 0l54.0 0l0 54.0l-54.0 0z" fill-rule="evenodd"/><path fill="#000000" fill-opacity="0.0" d="m2.0742288 2.1102362l49.889763 0l0 49.889763l-49.889763 0z" fill-rule="evenodd"/><path stroke="#002644" stroke-width="4.0" stroke-linejoin="round" stroke-linecap="butt" d="m2.0742288 2.1102362l49.889763 0l0 49.889763l-49.889763 0z" fill-rule="evenodd"/><path fill="#000000" fill-opacity="0.0" d="m3.6223598 9.888051l52.031494 0l0 42.110237l-52.031494 0z" fill-rule="evenodd"/><path fill="#002644" d="m15.15361 38.404926q0.296875 1.28125 1.96875 1.28125l2.765625 0l0 1.921875l-13.5625 0l0 -1.921875l3.0312505 -0.046875q1.1875 -0.15625 1.75 -1.234375l0 -24.609375q-0.171875 -0.984375 -2.0 -1.28125l-2.7812505 0l0 -1.921875l13.5625 0l0 1.921875l-2.984375 0q-1.140625 0.171875 -1.75 1.28125l0 24.609375zm24.695908 -26.953125q0.140625 -0.09375 -0.125 -0.71875q-0.25 -0.640625 -0.34375 -1.078125l2.140625 0l4.140625 7.171876l-1.203125 0.984375l-0.890625 -1.15625l-1.703125 -1.625001q-1.40625 -1.40625 -2.75 -2.0q-1.34375 -0.59375 -4.03125 -0.59375q-2.6875 0 -4.609375 1.875q-1.921875 1.875001 -1.921875 3.843751q0 1.953125 1.28125 2.984375q1.28125 1.015625 3.09375 1.78125q1.8125 0.765625 2.703125 0.984375q4.78125 1.15625 6.90625 2.609375q4.109375 2.71875 4.109375 7.03125q0 2.34375 -1.21875 4.15625q-1.21875 1.8125 -2.421875 2.578125q-2.984375 1.96875 -8.015625 1.96875q-3.03125 0 -5.546875 -1.453125l-0.640625 -0.375l0.09375 0.765625q0.125 0.421875 0.25 0.8125l-2.125 0l-4.140625 -7.171875l1.1875 -0.984375l0.90625 1.15625l1.703125 1.625q3.109375 3.1875 6.859375 3.1875q0.140625 0 0.265625 0q3.875 -0.125 6.15625 -2.078125q2.28125 -1.96875 2.28125 -4.125q0 -2.15625 -0.84375 -3.0q-1.84375 -1.84375 -3.125 -2.21875q-6.265625 -1.875 -9.765625 -3.59375q-4.09375 -2.046875 -4.09375 -6.21875l0 -0.171875q0 -2.09375 0.953125 -3.796876q0.96875 -1.703125 2.5 -2.640625q3.125 -1.875 6.234375 -1.875q3.109375 0 5.75 1.359375z" fill-rule="nonzero"/></g></svg>
