<svg version="1.1" viewBox="0.0 0.0 192.0 192.0" fill="none" stroke="none" stroke-linecap="square"
     stroke-miterlimit="10" xmlns:xlink="http://www.w3.org/1999/xlink" xmlns="http://www.w3.org/2000/svg">
  <g>
    <path fill="#002644"
          d="m0 32.00064l0 0c0 -17.673466 14.327174 -32.00064 32.00064 -32.00064l127.99872 0l0 0c8.487091 0 16.626587 3.3714864 22.627869 9.37277c6.0012817 6.0012846 9.372772 14.140772 9.372772 22.62787l0 127.99872c0 17.673462 -14.327179 32.00064 -32.00064 32.00064l-127.99872 0c-17.673466 0 -32.00064 -14.327179 -32.00064 -32.00064z"
          fill-rule="evenodd"/>
    <path stroke="#002644" stroke-width="1.0" stroke-linejoin="round" stroke-linecap="butt"
          d="m0 32.00064l0 0c0 -17.673466 14.327174 -32.00064 32.00064 -32.00064l127.99872 0l0 0c8.487091 0 16.626587 3.3714864 22.627869 9.37277c6.0012817 6.0012846 9.372772 14.140772 9.372772 22.62787l0 127.99872c0 17.673462 -14.327179 32.00064 -32.00064 32.00064l-127.99872 0c-17.673466 0 -32.00064 -14.327179 -32.00064 -32.00064z"
          fill-rule="evenodd"/>
    <path fill="#000000" fill-opacity="0.0" d="m5.6850395 29.007874l198.29921 0l0 162.99213l-198.29921 0z"
          fill-rule="evenodd"/>
    <path fill="#f6f7ff"
          d="m53.544415 139.491q1.109375 4.71875 7.234375 4.71875l10.234371 0l0 7.078125l-50.031246 0l0 -7.078125l11.171875 -0.15625q4.40625 -0.625 6.4375 -4.5625l0 -90.78125q-0.625 -3.625 -7.390625 -4.71875l-10.21875 0l0 -7.078125l50.031246 0l0 7.078125l-11.015621 0q-4.25 0.625 -6.453125 4.71875l0 90.78125zm91.10097 -99.4375q0.46875 -0.3125 -0.484375 -2.671875q-0.9375 -2.359375 -1.25 -3.9375l7.859375 0l15.265625 26.4375l-4.40625 3.609375l-3.296875 -4.234375l-6.296875 -5.984375q-5.203125 -5.1875 -10.15625 -7.390625q-4.953125 -2.203125 -14.875008 -2.203125q-9.90625 0 -16.984375 6.921875q-7.078125 6.921875 -7.078125 14.15625q0 7.234375 4.71875 11.015625q4.71875 3.78125 11.40625 6.609375q6.6875 2.828125 10.000008 3.609375q17.609375 4.25 25.484375 9.609375q15.109375 10.0625 15.109375 25.953125q0 8.65625 -4.484375 15.34375q-4.484375 6.6875 -8.890625 9.515625q-11.015625 7.234375 -29.578133 7.234375q-11.171875 0 -20.453125 -5.34375l-2.359375 -1.421875l0.3125 2.828125q0.46875 1.578125 0.9375 3.0l-7.859375 0l-15.265625 -26.4375l4.40625 -3.625l3.296875 4.25l6.296875 5.984375q11.484375 11.796875 25.328125 11.796875q0.484375 0 0.953125 0q14.312508 -0.46875 22.718758 -7.703125q8.421875 -7.234375 8.421875 -15.171875q0 -7.953125 -3.140625 -11.109375q-6.765625 -6.765625 -11.484375 -8.171875q-23.125008 -6.921875 -36.031258 -13.21875q-15.09375 -7.546875 -15.09375 -22.96875l0 -0.640625q0 -7.703125 3.53125 -13.984375q3.546875 -6.296875 9.203125 -9.765625q11.484375 -6.921875 22.96875 -6.921875q11.484383 0 21.250008 5.03125z"
          fill-rule="nonzero"/>
  </g>
</svg>
